<?xml version="1.0" encoding="UTF-8"?>
<svg width="296px" height="69px" viewBox="0 0 296 69" version="1.1" xmlns="http://www.w3.org/2000/svg" xmlns:xlink="http://www.w3.org/1999/xlink">
    <title>logo-athome-desktop</title>
    <g id="Page-1" stroke="none" stroke-width="1" fill="none" fill-rule="evenodd">
        <g id="logo-athome-desktop" fill-rule="nonzero">
            <g id="Group" transform="translate(88.000000, 0.000000)">
                <path d="M0,20.2167969 L0,4.76953125 L1.45019531,4.76953125 L7.48730469,11.4619141 L13.6210938,4.76953125 L15.0283203,4.76953125 L15.0283203,20.2167969 L11,20.2167969 L11,13.3525391 L7.72363281,16.7900391 L7.28320312,16.7900391 L4.02832031,13.3525391 L4.02832031,20.2167969 L0,20.2167969 Z M17.9931641,12.5361328 C17.9931641,11.2542254 18.2187477,10.0940807 18.6699219,9.05566406 C19.121096,8.01724741 19.7172815,7.17936517 20.4584961,6.54199219 C21.1997107,5.90461921 22.0447544,5.41227387 22.9936523,5.06494141 C23.9425503,4.71760894 24.9093375,4.54394531 25.894043,4.54394531 C26.8787484,4.54394531 27.8455356,4.71760894 28.7944336,5.06494141 C29.7433316,5.41227387 30.5883752,5.90461921 31.3295898,6.54199219 C32.0708045,7.17936517 32.6669899,8.01724741 33.1181641,9.05566406 C33.5693382,10.0940807 33.7949219,11.2542254 33.7949219,12.5361328 C33.7949219,13.8252018 33.5693382,14.9889271 33.1181641,16.0273438 C32.6669899,17.0657604 32.0708045,17.905433 31.3295898,18.5463867 C30.5883752,19.1873404 29.7433316,19.6814761 28.7944336,20.0288086 C27.8455356,20.3761411 26.8787484,20.5498047 25.894043,20.5498047 C24.9093375,20.5498047 23.9425503,20.3761411 22.9936523,20.0288086 C22.0447544,19.6814761 21.1997107,19.1873404 20.4584961,18.5463867 C19.7172815,17.905433 19.121096,17.0657604 18.6699219,16.0273438 C18.2187477,14.9889271 17.9931641,13.8252018 17.9931641,12.5361328 Z M22.0429688,12.5361328 C22.0429688,13.2093133 22.1539702,13.8180311 22.3759766,14.3623047 C22.5979829,14.9065782 22.8898094,15.3470035 23.2514648,15.6835938 C23.6131203,16.020184 24.0249,16.2779939 24.4868164,16.4570312 C24.9487328,16.6360686 25.4213843,16.7255859 25.9047852,16.7255859 C26.388186,16.7255859 26.8608375,16.6360686 27.3227539,16.4570312 C27.7846703,16.2779939 28.19645,16.020184 28.5581055,15.6835938 C28.9197609,15.3470035 29.2115874,14.9065782 29.4335938,14.3623047 C29.6556001,13.8180311 29.7666016,13.2093133 29.7666016,12.5361328 C29.7666016,11.8701139 29.6556001,11.266767 29.4335938,10.7260742 C29.2115874,10.1853814 28.9197609,9.74853682 28.5581055,9.41552734 C28.19645,9.08251787 27.7846703,8.82649829 27.3227539,8.64746094 C26.8608375,8.46842358 26.388186,8.37890625 25.9047852,8.37890625 C25.4213843,8.37890625 24.9487328,8.46842358 24.4868164,8.64746094 C24.0249,8.82649829 23.6131203,9.08251787 23.2514648,9.41552734 C22.8898094,9.74853682 22.5979829,10.1853814 22.3759766,10.7260742 C22.1539702,11.266767 22.0429688,11.8701139 22.0429688,12.5361328 Z M36.8886719,4.8125 L40.90625,4.8125 L40.90625,12.3642578 L48.6943359,4.74804688 L50.1230469,4.74804688 L50.1230469,20.2167969 L46.0625,20.2167969 L46.0625,12.6435547 L38.2958984,20.2382812 L36.8886719,20.2382812 L36.8886719,4.8125 Z M40.2509766,0.21484375 C41.2607472,0.100259844 42.0162735,0.0286459766 42.5175781,0 C42.5820316,0.809248838 43.0869093,1.21386719 44.0322266,1.21386719 C44.5120467,1.21386719 44.8880195,1.12255951 45.1601562,0.939941406 C45.432293,0.757323306 45.6005856,0.444012637 45.6650391,0 C46.1663437,0.0286459766 46.92187,0.100259844 47.9316406,0.21484375 C47.8886717,1.44662074 47.5395541,2.38297206 46.8842773,3.02392578 C46.2290006,3.66487951 45.2926493,3.98535156 44.0751953,3.98535156 C42.8792258,3.98535156 41.9500359,3.66308916 41.2875977,3.01855469 C40.6251594,2.37402021 40.2796225,1.43945925 40.2509766,0.21484375 Z" id="Shape" fill="#58595B"></path>
                <path d="M0.359375,31.5742188 L0.359375,30.2070312 L10.3691406,30.2070312 L16.9609375,43.1220703 L17.2050781,43.1220703 L23.2109375,30.2070312 L32.9277344,30.2070312 L32.9277344,31.5742188 L16.3261719,65.2167969 L6.65820312,65.2167969 L6.65820312,64.2646484 L12.1757812,52.9609375 L0.359375,31.5742188 Z M37.7861328,65.2167969 L37.7861328,30.2070312 L46.9414062,30.2070312 L46.9414062,42.9267578 L57.7324219,42.9267578 L57.7324219,30.2070312 L66.8876953,30.2070312 L66.8876953,65.2167969 L57.7324219,65.2167969 L57.7324219,51.1787109 L46.9414062,51.1787109 L46.9414062,65.2167969 L37.7861328,65.2167969 Z M75.8720703,65.265625 L75.8720703,30.2070312 L85.0273437,30.2070312 L85.0273437,47.3701172 L102.727539,30.0605469 L105.974609,30.0605469 L105.974609,65.2167969 L96.7216797,65.2167969 L96.7216797,48.0048828 L79.0703125,65.265625 L75.8720703,65.265625 Z M114.910156,65.2167969 L114.910156,30.2070312 L129.875977,30.2070312 C132.903335,30.2070312 135.474924,31.2446185 137.59082,33.3198242 C139.706716,35.3950299 140.764648,37.9462739 140.764648,40.9736328 C140.764648,42.0478569 140.512372,43.1546167 140.007812,44.2939453 C139.503253,45.4332739 138.835942,46.3447231 138.005859,47.0283203 C140.805353,48.444343 142.205078,50.8206213 142.205078,54.1572266 C142.172526,57.3636228 141.20818,60.0084531 139.312012,62.0917969 C137.415843,64.1751406 134.750668,65.2167969 131.316406,65.2167969 L114.910156,65.2167969 Z M123.577148,57.2578125 L130.706055,57.2578125 C131.389652,57.2578125 131.963377,57.054364 132.427246,56.6474609 C132.891116,56.2405579 133.171875,55.7482125 133.269531,55.1704102 C133.367188,54.5926078 133.363119,54.0107451 133.257324,53.4248047 C133.151529,52.8388643 132.862633,52.34245 132.390625,51.9355469 C131.918617,51.5286438 131.340824,51.3251953 130.657227,51.3251953 L123.577148,51.3251953 L123.577148,57.2578125 Z M123.577148,43.8789062 L129.216797,43.8789062 C129.884118,43.8789062 130.449705,43.6835957 130.913574,43.2929688 C131.377444,42.9023418 131.662272,42.4303413 131.768066,41.8769531 C131.873861,41.3235649 131.869792,40.7701851 131.755859,40.2167969 C131.641927,39.6634087 131.35303,39.1914082 130.88916,38.8007812 C130.425291,38.4101543 129.851566,38.2148438 129.167969,38.2148438 L123.577148,38.2148438 L123.577148,43.8789062 Z M149.1875,65.2167969 L149.1875,30.2070312 L171.038086,30.2070312 L171.038086,38.2148438 L158.098633,38.2148438 L158.098633,43.1708984 L169.988281,43.1708984 L169.988281,51.1054688 L158.098633,51.1054688 L158.098633,57.2578125 L171.501953,57.2578125 L171.501953,65.2167969 L149.1875,65.2167969 Z M179.167969,65.2167969 L179.167969,30.2070312 L194.573242,30.2070312 C196.379892,30.2070312 198.035963,30.508135 199.541504,31.1103516 C201.047045,31.7125681 202.288081,32.5141552 203.264648,33.5151367 C204.241216,34.5161183 205.067217,35.6676367 205.742676,36.9697266 C206.418135,38.2718164 206.829101,39.6430592 206.975586,41.0834961 C207.122071,42.523933 207.122071,43.9643483 206.975586,45.4047852 C206.829101,46.845222 206.418135,48.2164648 205.742676,49.5185547 C205.067217,50.8206445 204.241216,51.972163 203.264648,52.9731445 C202.288081,53.9741261 201.047045,54.7716442 199.541504,55.3657227 C198.035963,55.9598011 196.379892,56.2568359 194.573242,56.2568359 L188.12793,56.2568359 L188.12793,65.2167969 L179.167969,65.2167969 Z M188.12793,48.2246094 L194.524414,48.2246094 C195.191735,48.2246094 195.798012,48.0415057 196.343262,47.675293 C196.888512,47.3090802 197.303547,46.8330107 197.588379,46.2470703 C197.873211,45.6611299 198.084797,45.0141637 198.223145,44.3061523 C198.361492,43.598141 198.36963,42.8860713 198.247559,42.1699219 C198.125488,41.4537725 197.926108,40.8027373 197.649414,40.2167969 C197.37272,39.6308564 196.961754,39.150718 196.416504,38.7763672 C195.871254,38.4020164 195.240563,38.2148438 194.524414,38.2148438 C193.905921,38.1985676 193.234541,38.1904297 192.510254,38.1904297 C191.785966,38.1904297 190.988448,38.1944987 190.117676,38.2026367 C189.246903,38.2107748 188.583661,38.2148438 188.12793,38.2148438 L188.12793,48.2246094 Z" id="Shape" fill="#1897D3"></path>
            </g>
            <g id="symbol">
                <polygon id="Rectangle" fill="#06B4FC" points="0 21 18 1 18 69 0 49"></polygon>
                <polygon id="Rectangle" fill="#06B4FC" points="61 1 79 21 79 49 61 69"></polygon>
                <polygon id="Rectangle" fill="#0095D4" points="17.6654762 26.3933983 17.3933983 0.665476221 40.3345238 23.6066017 27.6066017 36.3345238"></polygon>
                <polygon id="Rectangle" fill="#00A1E5" points="60.9411255 26.7867966 61.2132034 1.0588745 18.0588745 43.2132034 17.7867966 68.9411255"></polygon>
            </g>
        </g>
    </g>
</svg>